<svg width="24" height="24" viewBox="0 0 24 24" fill="none" xmlns="http://www.w3.org/2000/svg">
<path d="M5.14258 5H22.2854L20.5711 15.2857H6.85686L5.14258 5Z" stroke="black" stroke-width="1.5" stroke-linecap="round" stroke-linejoin="round"/>
<path d="M8.57059 21.0001C9.20177 21.0001 9.71345 20.4884 9.71345 19.8572C9.71345 19.226 9.20177 18.7144 8.57059 18.7144C7.93941 18.7144 7.42773 19.226 7.42773 19.8572C7.42773 20.4884 7.93941 21.0001 8.57059 21.0001Z" stroke="black" stroke-width="1.5" stroke-linecap="round" stroke-linejoin="round"/>
<path d="M18.8577 21.0001C19.4889 21.0001 20.0006 20.4884 20.0006 19.8572C20.0006 19.226 19.4889 18.7144 18.8577 18.7144C18.2265 18.7144 17.7148 19.226 17.7148 19.8572C17.7148 20.4884 18.2265 21.0001 18.8577 21.0001Z" stroke="black" stroke-width="1.5" stroke-linecap="round" stroke-linejoin="round"/>
<path d="M5.14341 5H1.71484" stroke="black" stroke-width="1.5" stroke-linecap="round" stroke-linejoin="round"/>
</svg>
